<svg xmlns="http://www.w3.org/2000/svg" viewBox="0 0 64 64">
  <defs>
    <linearGradient id="nb-bg" x1="0" y1="0" x2="0" y2="1">
      <stop offset="0" stop-color="#2c2419"/>
      <stop offset="1" stop-color="#100e0b"/>
    </linearGradient>
    <linearGradient id="nb-page" x1="0" y1="0" x2="0" y2="1">
      <stop offset="0" stop-color="#f3e7cb"/>
      <stop offset="1" stop-color="#d6c29a"/>
    </linearGradient>
    <linearGradient id="nb-handle" x1="0" y1="0" x2="1" y2="0">
      <stop offset="0" stop-color="#4a3a22"/>
      <stop offset="1" stop-color="#8f6b36"/>
    </linearGradient>
    <linearGradient id="nb-glass" x1="0" y1="0" x2="1" y2="1">
      <stop offset="0" stop-color="#dce8f0" stop-opacity="0.55"/>
      <stop offset="1" stop-color="#8aa4b5" stop-opacity="0.28"/>
    </linearGradient>
    <clipPath id="nb-lens">
      <circle cx="24" cy="19" r="14"/>
    </clipPath>
  </defs>
  <rect width="64" height="64" rx="12" fill="url(#nb-bg)"/>
  <g transform="translate(4 6) scale(1.167)">
    <rect
      x="30"
      y="27"
      width="18"
      height="5"
      rx="2.5"
      transform="rotate(40 30 27)"
      fill="url(#nb-handle)"
      stroke="#6d542f"
      stroke-width="0.8"
    />
    <circle
      cx="24"
      cy="19"
      r="14"
      fill="#191206"
      stroke="#d3b06a"
      stroke-width="2.4"
    />
    <g clip-path="url(#nb-lens)">
      <path
        d="M24 8 L10 10 L8 28 L22 32 Z"
        fill="url(#nb-page)"
        stroke="#b99b66"
        stroke-width="0.8"
      />
      <path
        d="M24 8 L38 10 L40 28 L26 32 Z"
        fill="url(#nb-page)"
        stroke="#b99b66"
        stroke-width="0.8"
      />
      <line
        x1="24"
        y1="8"
        x2="24"
        y2="32"
        stroke="#8a6b3a"
        stroke-width="0.9"
        opacity="0.55"
      />
      <line
        x1="12.5"
        y1="15"
        x2="21"
        y2="16"
        stroke="#b08a52"
        stroke-width="1"
        opacity="0.75"
      />
      <line
        x1="12.5"
        y1="19.5"
        x2="21"
        y2="20.5"
        stroke="#b08a52"
        stroke-width="1"
        opacity="0.75"
      />
      <line
        x1="12.5"
        y1="24"
        x2="21"
        y2="25"
        stroke="#b08a52"
        stroke-width="1"
        opacity="0.75"
      />
      <line
        x1="27"
        y1="15"
        x2="35.5"
        y2="16"
        stroke="#b08a52"
        stroke-width="1"
        opacity="0.75"
      />
      <line
        x1="27"
        y1="19.5"
        x2="35.5"
        y2="20.5"
        stroke="#b08a52"
        stroke-width="1"
        opacity="0.75"
      />
      <text x="31" y="29" font-size="6.5" fill="#8f6b36" text-anchor="middle">✦</text>
    </g>
    <circle
      cx="24"
      cy="19"
      r="14"
      fill="url(#nb-glass)"
      pointer-events="none"
    />
    <path
      d="M17 8.5 A12 12 0 0 1 24 5"
      fill="none"
      stroke="#ffffff"
      stroke-opacity="0.45"
      stroke-width="1.6"
      stroke-linecap="round"
    />
  </g>
</svg>